:FULLY-SPECIFIED
:FORCE-ALL-JOINTS-BE-3DOF
:DEGREES
2752
root -5.55334 13.9703 -28.3997 1242 -65.1913 -161.084
lfemur -59.4007 42.9154 -6.32316
ltibia 67.7513 0 0
lfoot -2.39242 -1.25452 0
ltoes -31.3514 0 0
rfemur -30.8959 -18.5472 21.7094
rtibia 81.6811 0 0
rfoot -34.9551 -24.7451 0
rtoes -14.5677 0 0
lowerback 15.7608 5.8234 0.554607
upperback -4.01077 8.13003 1.4866
thorax -13.4705 3.80443 -0.861533
lowerneck -2.40251 9.6188 2.06075
upperneck 7.48839 12.5811 1.97966
head 2.79791 6.35068 0.685613
lclavicle 2.38101e-14 -6.18764e-15 0
lhumerus 3.54696 10.6623 83.9488
lradius 94.813 0 0
lwrist -19.1432 0 0
lhand -39.8061 387.624 0
lfingers 7.12502 0 0
lthumb -12.7808 -662.786 0
rclavicle 2.38101e-14 -6.18764e-15 0
rhumerus -57.8509 50.9326 -110.149
rradius 114.094 0 0
rwrist -84.6914 0 0
rhand 4.59357 -386.98 0
rfingers 7.12502 0 0
rthumb 29.9823 305.43 0
2753
root -5.56213 13.9602 -28.4066 1242.01 -65.1959 -161.09
lfemur -59.4332 42.9403 -6.32605
ltibia 67.8097 0 0
lfoot -2.41283 -1.28272 0
ltoes -31.3541 0 0
rfemur -30.8919 -18.5586 21.7013
rtibia 81.7162 0 0
rfoot -34.9949 -24.7551 0
rtoes -14.5766 0 0
lowerback 15.7511 5.82319 0.549209
upperback -4.01581 8.12865 1.48627
thorax -13.4713 3.80428 -0.857869
lowerneck -2.40165 9.61851 2.06155
upperneck 7.49688 12.5804 1.9805
head 2.80065 6.35038 0.686022
lclavicle 2.39532e-14 -6.15933e-15 0
lhumerus 3.54947 10.6742 83.9483
lradius 94.8033 0 0
lwrist -19.1559 0 0
lhand -39.8048 387.625 0
lfingers 7.12502 0 0
lthumb -12.7795 -662.785 0
rclavicle 2.39532e-14 -6.15933e-15 0
rhumerus -57.8663 50.9147 -110.16
rradius 114.097 0 0
rwrist -84.6818 0 0
rhand 4.60831 -386.972 0
rfingers 7.12502 0 0
rthumb 29.9963 305.44 0
2754
root -5.57092 13.9501 -28.4135 1242.02 -65.1997 -161.095
lfemur -59.4589 42.96 -6.32793
ltibia 67.8564 0 0
lfoot -2.42917 -1.3052 0
ltoes -31.3562 0 0
rfemur -30.8887 -18.5675 21.6949
rtibia 81.7448 0 0
rfoot -35.027 -24.7633 0
rtoes -14.583 0 0
lowerback 15.7435 5.82301 0.544941
upperback -4.01979 8.12756 1.48608
thorax -13.4719 3.80417 -0.854892
lowerneck -2.40105 9.61828 2.06221
upperneck 7.50383 12.5799 1.98112
head 2.80291 6.35015 0.68634
lclavicle 2.40509e-14 -6.13538e-15 0
lhumerus 3.55116 10.6836 83.9479
lradius 94.7959 0 0
lwrist -19.1653 0 0
lhand -39.8037 387.626 0
lfingers 7.12502 0 0
lthumb -12.7785 -662.785 0
rclavicle 2.40509e-14 -6.13538e-15 0
rhumerus -57.878 50.9009 -110.168
rradius 114.099 0 0
rwrist -84.6746 0 0
rhand 4.62005 -386.966 0
rfingers 7.12502 0 0
rthumb 30.0075 305.448 0
2755
root -5.57971 13.9399 -28.4205 1242.03 -65.2026 -161.099
lfemur -59.4784 42.9752 -6.32885
ltibia 67.8928 0 0
lfoot -2.44192 -1.32264 0
ltoes -31.3578 0 0
rfemur -30.8863 -18.5739 21.6901
rtibia 81.7679 0 0
rfoot -35.0522 -24.77 0
rtoes -14.5869 0 0
lowerback 15.7375 5.82287 0.541677
upperback -4.02282 8.12672 1.48601
thorax -13.4723 3.80409 -0.852509
lowerneck -2.40071 9.61812 2.06274
upperneck 7.50945 12.5795 1.98151
head 2.80478 6.34997 0.686577
lclavicle 2.41047e-14 -6.11496e-15 0
lhumerus 3.55203 10.6909 83.9476
lradius 94.7905 0 0
lwrist -19.1718 0 0
lhand -39.8029 387.627 0
lfingers 7.12502 0 0
lthumb -12.7777 -662.784 0
rclavicle 2.41047e-14 -6.11496e-15 0
rhumerus -57.8865 50.8909 -110.174
rradius 114.101 0 0
rwrist -84.6697 0 0
rhand 4.62914 -386.961 0
rfingers 7.12502 0 0
rthumb 30.0162 305.455 0
2756
root -5.58849 13.9298 -28.4274 1242.03 -65.2048 -161.103
lfemur -59.4925 42.9863 -6.32881
ltibia 67.9203 0 0
lfoot -2.45158 -1.33573 0
ltoes -31.359 0 0
rfemur -30.8846 -18.5783 21.6865
rtibia 81.7863 0 0
rfoot -35.0717 -24.7755 0
rtoes -14.5887 0 0
lowerback 15.733 5.82275 0.539291
upperback -4.02502 8.12609 1.48608
thorax -13.4725 3.80403 -0.850624
lowerneck -2.40061 9.61802 2.06317
upperneck 7.51397 12.5792 1.98171
head 2.80633 6.34985 0.686741
lclavicle 2.41164e-14 -6.09724e-15 0
lhumerus 3.55211 10.6962 83.9474
lradius 94.7871 0 0
lwrist -19.1755 0 0
lhand -39.8022 387.628 0
lfingers 7.12502 0 0
lthumb -12.7771 -662.782 0
rclavicle 2.41164e-14 -6.09724e-15 0
rhumerus -57.8919 50.8843 -110.178
rradius 114.101 0 0
rwrist -84.6667 0 0
rhand 4.63594 -386.958 0
rfingers 7.12502 0 0
rthumb 30.0227 305.459 0
2757
root -5.59728 13.9196 -28.4344 1242.04 -65.2064 -161.105
lfemur -59.5021 42.9941 -6.32785
ltibia 67.9403 0 0
lfoot -2.45867 -1.34514 0
ltoes -31.3599 0 0
rfemur -30.8834 -18.5808 21.6841
rtibia 81.801 0 0
rfoot -35.0863 -24.7801 0
rtoes -14.5883 0 0
lowerback 15.7298 5.82265 0.537656
upperback -4.02651 8.12565 1.48628
thorax -13.4726 3.804 -0.849144
lowerneck -2.40075 9.61797 2.06352
upperneck 7.51762 12.5791 1.98171
head 2.80763 6.34977 0.686842
lclavicle 2.40877e-14 -6.08139e-15 0
lhumerus 3.55144 10.7 83.9473
lradius 94.7854 0 0
lwrist -19.1767 0 0
lhand -39.8018 387.629 0
lfingers 7.12502 0 0
lthumb -12.7767 -662.781 0
rclavicle 2.40877e-14 -6.08139e-15 0
rhumerus -57.8947 50.8807 -110.181
rradius 114.101 0 0
rwrist -84.6656 0 0
rhand 4.64081 -386.955 0
rfingers 7.12502 0 0
rthumb 30.0273 305.462 0
2758
root -5.60607 13.9095 -28.4413 1242.04 -65.2075 -161.108
lfemur -59.5077 42.9991 -6.326
ltibia 67.9542 0 0
lfoot -2.46366 -1.35155 0
ltoes -31.3604 0 0
rfemur -30.8827 -18.5817 21.6826
rtibia 81.8128 0 0
rfoot -35.0971 -24.784 0
rtoes -14.586 0 0
lowerback 15.7275 5.82255 0.536645
upperback -4.02741 8.12537 1.48662
thorax -13.4725 3.80399 -0.847975
lowerneck -2.40111 9.61796 2.0638
upperneck 7.52061 12.579 1.98154
head 2.80875 6.34973 0.686889
lclavicle 2.40202e-14 -6.06657e-15 0
lhumerus 3.55004 10.7025 83.9473
lradius 94.7852 0 0
lwrist -19.1757 0 0
lhand -39.8015 387.631 0
lfingers 7.12502 0 0
lthumb -12.7764 -662.779 0
rclavicle 2.40202e-14 -6.06657e-15 0
rhumerus -57.8951 50.8798 -110.182
rradius 114.1 0 0
rwrist -84.6662 0 0
rhand 4.64409 -386.954 0
rfingers 7.12502 0 0
rthumb 30.0304 305.465 0
